# xmcd CD database file
#
# Track frame offsets:
#	182
#	9772
#	19075
#	33317
#	46817
#	53492
#	65202
#	77457
#	92955
#	105175
#	113540
#	124235
#	139450
#	152677
#	163987
#	171715
#
# Disc length: 2502 seconds
#
# Revision: 0
# Processed by: cddbd v1.5PL3 Copyright (c) Steve Scherf et al.
# Submitted via: CDex 1.51
#
DISCID=ca09c410
DTITLE=Ruzni - Vandr do padesatejch
DYEAR=1900
DGENRE=Country
TTITLE0=Ruty suty arizona texas
TTITLE1=Kapkami si dest
TTITLE2=Slunicko zlate az zazari
TTITLE3=Krinolina
TTITLE4=Ahoj kamaradi
TTITLE5=Stara stezka
TTITLE6=More huci
TTITLE7=Anglicka sobota
TTITLE8=Trampe kamarade
TTITLE9=O luno ma
TTITLE10=Zpoved
TTITLE11=Pulnocni vlak
TTITLE12=Quantamo
TTITLE13=Tramp kapitan
TTITLE14=Zakazuje se
TTITLE15=Uz se mi tvuj satek v dali ztraci
EXTD=
EXTT0=
EXTT1=
EXTT2=
EXTT3=
EXTT4=
EXTT5=
EXTT6=
EXTT7=
EXTT8=
EXTT9=
EXTT10=
EXTT11=
EXTT12=
EXTT13=
EXTT14=
EXTT15=
PLAYORDER=
